<svg version="1.2" xmlns="http://www.w3.org/2000/svg" viewBox="0 0 816 858" width="816" height="858">
	<title>logo-svg</title>
	<style>
		.s0 { fill: none;stroke: #e8d6c0;stroke-width: 2 } 
		.s1 { fill: #e8d6c0;stroke: #e8d6c0;stroke-width: 2 } 
		.s2 { fill: none;stroke: #6f8367;stroke-width: 2 } 
		.s3 { fill: #6f8367 } 
		.s4 { fill: #6f8367;stroke: #6f8367;stroke-width: 2 } 
	</style>
	<path id="Layer" class="s0" d="m350.3 678.7c-9.2 2.4-18.8 3.6-28.7 3.6-62.5 0-113.2-50.7-113.2-113.2"/>
	<path id="Layer" class="s0" d="m573.2 569.3c0 62.5-50.7 113.2-113.3 113.2-8.5 0-16.8-0.9-24.8-2.7l-1.6-0.4"/>
	<path id="Layer" class="s1" d="m350.6 595.4l-51.9-137.6 62.3-291.2-144.8 291.2z"/>
	<path id="Layer" class="s1" d="m432.4 595.5l63.8-137.7-74.1-292.1-26.9-65.8h-25.1v-1.9h26l184.7 359.8z"/>
	<path id="Layer" class="s2" d="m539.5 171.8c-22.9 0-41.4-18.5-41.4-41.3 0-22.9 18.5-41.4 41.4-41.4 22.8 0 41.3 18.5 41.3 41.4 0 22.8-18.5 41.3-41.3 41.3z"/>
	<path id="Layer" class="s3" d="m560.9 122.5v19.3l-13.8 13.8h-19l-13.8-13.8v-19.3l13.5-13.5h19.6z"/>
	<path id="Layer" class="s1" d="m434.1 593.1l-0.1 0.9v85.1c0 0.4-0.6 0.5-0.7 0.1l-24.1-60.5c-5.4 2.4-11.4 3.6-17.7 3.6-6.2 0-12.1-1.2-17.5-3.5l-23.6 59.7c-0.2 0.4-0.7 0.3-0.7-0.2l0.9-82.9c-2.3-5.4-3.6-11.4-3.6-17.6 0-24.6 19.9-44.6 44.5-44.6 24.6 0 44.6 20 44.6 44.6 0 6.4 0.4 9.8-2 15.3z"/>
	<path id="Layer" class="s4" d="m217.8 132.1c0 6-4.9 10.9-10.9 10.9-6 0-10.9-4.9-10.9-10.9 0-22.7 18.4-41.2 41.2-41.2 22.7 0 41.2 18.5 41.2 41.2v0.4c-0.1 5.9-5 10.7-10.9 10.7-6 0-10.9-4.9-10.9-10.9 0-10.7-8.7-19.4-19.4-19.4-10.7 0-19.4 8.7-19.4 19.4"/>
	<path id="Layer" class="s4" d="m547.4 110.1l-34-11.7"/>
	<path id="Layer" class="s4" d="m527.8 110.1l-28.9 13.2"/>
	<path id="Layer" class="s4" d="m515.1 123.3l-7.7 33.1"/>
	<path id="Layer" class="s4" d="m515.7 141.8l13.8 28.5"/>
	<path id="Layer" class="s4" d="m528.1 154.8l33.7 10.5"/>
	<path id="Layer" class="s4" d="m547.1 154.8l32.1-13.8"/>
	<path id="Layer" class="s4" d="m560.1 141.8l14.1-33.7"/>
	<path id="Layer" class="s4" d="m560.1 122.5l-13.6-32.6"/>
</svg>